# xmcd
#
# Track frame offsets:
#	150
#	16020
#	32045
#	51487
#	75697
#	77972
#	99472
#	119667
#	138295
#	158284
#	177262
#	192292
#	213917
#	233352
#	254597
#	274775
#	296762
#	315192
#	328685
#
# Disc length: 4692 seconds
#
# Revision: 1
# Processed by: cddbd v1.5.1PL0 Copyright (c) Steve Scherf et al.
# Submitted via: EasyCDDAExtractor 6.5.0.1
#
DISCID=fe125213
DTITLE=Nasty Nardo - Can't Stop Ballin'
DYEAR=2004
DGENRE=Gangsta
TTITLE0='Til They Kill Me
TTITLE1=Dope Boy
TTITLE2=Click On 'Em
TTITLE3=U Gettin Dealt With (feat. Don Vito and K-9)
TTITLE4=Big Fuckin Star
TTITLE5=Let's Get A Room (feat. Gangsta Boo)
TTITLE6=Rollin' (feat. Mr Sche)
TTITLE7=Dancin' (feat. Jay-P)
TTITLE8=Towe Up (feat. Mizz T and Jay-P)
TTITLE9=Mean Muggs (feat. Tom Skeemask)
TTITLE10=Call The Police
TTITLE11=They Call Me...
TTITLE12=Take Ya Shirt Off (feat. Mr Sche)
TTITLE13=Right Chere
TTITLE14=Don't Play With It (feat. Kingpin Skinny Pimp)
TTITLE15=Trill
TTITLE16=Yuckmouth (feat. Al Kapone)
TTITLE17=My Fila's (feat. Al Kapone and Se7en Da Great)
TTITLE18=Cartel Niggas (feat. Burn Unit, Krunk City, Tydial, Pistol Pete, Week
TTITLE18=end, Silkii T, Chopper Girl, Boss King and Mizz T)
EXTD=
EXTT0=
EXTT1=
EXTT2=
EXTT3=
EXTT4=
EXTT5=
EXTT6=
EXTT7=
EXTT8=
EXTT9=
EXTT10=
EXTT11=
EXTT12=
EXTT13=
EXTT14=
EXTT15=
EXTT16=
EXTT17=
EXTT18=
PLAYORDER=
